# xmcd CD database file
#
# Track frame offsets:
#	183
#	14853
#	32183
#	50483
#	60408
#	91433
#	102308
#	122833
#	138233
#	159808
#	177708
#	194745
#	209420
#	224333
#
# Disc length: 3203 seconds
#
# Revision: 0
# Processed by: cddbd v1.5.2PL0 Copyright (c) Steve Scherf et al.
# Submitted via: CDex 1.51
#
DISCID=d50c810e
DTITLE=Greg HARRIS - Electric
DYEAR=1996
DGENRE=Blues
TTITLE0=Roll On Brother
TTITLE1=Jambalaya (On The Bayou)
TTITLE2=Ease On By You
TTITLE3=How Mountain Girls Can Love
TTITLE4=Drivin' Wheel
TTITLE5=Cash On The Barrelhead
TTITLE6=Don't You Worry
TTITLE7=Rider In The Rain
TTITLE8=Somethin' For Free
TTITLE9=Makin' It Right
TTITLE10=Norwegian Wood (This Bird Has Flown)
TTITLE11=All I Can Do
TTITLE12=Who's Gonna Love You
TTITLE13=It Hurts To Be In Love
EXTD=YEAR: 1996
EXTT0=
EXTT1=
EXTT2=
EXTT3=
EXTT4=
EXTT5=
EXTT6=
EXTT7=
EXTT8=
EXTT9=
EXTT10=
EXTT11=
EXTT12=
EXTT13=
PLAYORDER=
